<?xml version="1.0" standalone="no"?>
<!DOCTYPE svg PUBLIC "-//W3C//DTD SVG 20010904//EN"
 "http://www.w3.org/TR/2001/REC-SVG-20010904/DTD/svg10.dtd">
<svg version="1.0" xmlns="http://www.w3.org/2000/svg"
 width="2268.000000pt" height="2264.000000pt" viewBox="0 0 2268.000000 2264.000000"
 preserveAspectRatio="xMidYMid meet">

<g transform="translate(0.000000,2264.000000) scale(0.100000,-0.100000)"
fill="#000000" stroke="none">
<path d="M0 11320 l0 -11320 11340 0 11340 0 0 11320 0 11320 -5597 -2 c-3079
-1 -5553 -3 -5498 -5 2246 -57 4440 -793 6263 -2101 684 -491 1311 -1056 1868
-1682 1373 -1543 2294 -3430 2663 -5455 86 -472 136 -903 173 -1480 8 -131 12
-1765 15 -5992 l4 -5813 -5253 0 c-3843 0 -5297 -3 -5418 -12 -223 -15 -987
-15 -1235 0 -841 53 -1553 167 -2320 372 -1508 405 -2938 1135 -4155 2124
-477 387 -876 769 -1342 1281 -137 151 -420 498 -579 710 -1287 1715 -2046
3713 -2223 5850 -55 658 -45 1457 24 2110 148 1380 521 2651 1141 3885 1123
2234 2981 4049 5244 5122 1414 671 2968 1042 4530 1081 55 2 -2394 4 -5442 5
l-5543 2 0 -11320z"/>
<path d="M11015 21024 c-870 -32 -1608 -148 -2405 -375 -890 -254 -1794 -670
-2585 -1187 -949 -620 -1768 -1387 -2449 -2293 -1535 -2039 -2193 -4574 -1845
-7109 217 -1587 841 -3114 1797 -4400 314 -422 571 -720 937 -1085 390 -391
667 -631 1095 -950 969 -721 2091 -1261 3270 -1574 1476 -391 3078 -419 4582
-80 1637 369 3181 1181 4403 2315 233 217 408 393 626 629 95 104 309 358 425
506 1083 1376 1770 3009 1988 4729 87 686 101 1401 40 2090 -267 3044 -1992
5804 -4624 7397 -1343 813 -2821 1273 -4405 1372 -173 11 -705 20 -850 15z
m387 -1080 l67 -7 22 -66 c78 -234 193 -432 539 -926 208 -297 287 -483 262
-619 -17 -89 -58 -161 -139 -242 -171 -172 -446 -309 -1068 -534 -789 -285
-1379 -602 -2006 -1076 -469 -355 -744 -700 -867 -1084 -180 -564 -58 -1140
394 -1862 41 -65 138 -216 216 -335 225 -343 359 -632 398 -859 20 -112 9
-256 -24 -326 -131 -276 -530 -289 -1346 -43 -80 24 -173 49 -208 56 -80 15
-286 7 -367 -16 -411 -112 -719 -459 -816 -918 -31 -144 -31 -380 0 -524 104
-496 436 -884 986 -1153 406 -199 881 -320 1479 -375 94 -9 186 -18 204 -21
72 -11 185 -151 224 -277 27 -89 20 -150 -24 -225 -42 -71 -191 -226 -393
-411 -320 -291 -482 -472 -602 -672 -232 -385 -228 -660 12 -887 310 -294 759
-436 1264 -402 431 29 853 139 1576 412 827 312 1121 404 1367 427 86 8 200 1
242 -15 22 -8 19 -41 -21 -264 -50 -283 -134 -541 -263 -808 -98 -201 -152
-292 -296 -498 -280 -399 -380 -601 -436 -878 -29 -142 -28 -371 1 -516 80
-403 306 -760 658 -1040 l71 -58 -121 -16 c-589 -78 -1277 -91 -1882 -36
-1345 125 -2605 551 -3758 1271 -867 542 -1666 1275 -2301 2112 l-90 118 17
154 c41 378 137 702 312 1060 124 253 219 408 517 842 188 273 255 424 286
641 21 150 7 289 -44 442 -49 146 -117 264 -272 468 -73 98 -151 212 -173 254
-142 280 -136 656 17 1046 90 232 190 392 405 648 220 264 315 419 376 619 25
84 27 102 27 275 0 174 -2 191 -27 274 -123 398 -459 687 -907 777 -125 26
-379 35 -535 20 -365 -35 -825 -128 -1204 -242 -73 -22 -135 -38 -137 -37 -6
6 110 389 171 568 605 1760 1785 3292 3340 4336 1262 848 2723 1343 4230 1434
298 18 547 23 647 14z m1608 -176 c553 -111 1114 -288 1660 -521 200 -85 641
-305 840 -419 327 -187 685 -422 673 -441 -6 -10 -800 -1126 -1703 -2392 -298
-417 -394 -589 -466 -827 -54 -181 -71 -396 -45 -548 58 -327 273 -581 610
-719 229 -95 761 -177 1279 -197 121 -5 182 -11 182 -18 0 -6 5 -40 10 -76 16
-103 13 -496 -5 -661 -26 -247 -73 -474 -146 -704 -27 -84 -32 -116 -32 -200
0 -162 44 -266 167 -393 287 -297 768 -354 1212 -143 55 26 169 92 254 145 84
54 179 111 212 127 l58 29 48 -24 c51 -26 188 -123 379 -269 277 -211 498
-311 753 -338 275 -30 566 57 809 242 l94 71 -6 -308 c-9 -441 -41 -796 -112
-1221 -259 -1544 -941 -2990 -1974 -4183 -254 -294 -609 -646 -906 -901 -651
-556 -1391 -1020 -2165 -1356 l-185 -80 -220 8 c-540 18 -836 98 -1105 300
-118 88 -179 146 -236 225 -91 127 -126 251 -99 355 20 79 77 189 165 314 153
220 281 416 341 520 336 589 542 1320 544 1930 0 188 -1 204 -24 258 -60 150
-264 389 -421 494 -251 167 -537 234 -906 212 -376 -23 -765 -127 -1448 -386
-824 -313 -1188 -425 -1451 -448 l-70 -7 90 83 c176 161 422 415 488 504 173
234 259 440 288 688 66 571 -288 1222 -806 1480 -157 78 -283 109 -510 127
-591 47 -1068 175 -1355 365 -136 90 -238 220 -255 323 -9 59 11 144 34 138 9
-3 70 -21 136 -40 763 -225 1356 -232 1813 -21 272 126 539 392 673 673 95
197 139 403 139 646 0 289 -48 530 -167 831 -106 267 -197 434 -453 825 -199
304 -262 409 -340 572 -259 538 -169 791 445 1249 299 222 606 408 970 585
261 127 366 170 760 314 723 264 1103 472 1403 770 387 383 532 892 401 1409
-70 277 -179 489 -457 887 -65 93 -121 175 -126 182 -9 16 -12 16 264 -40z
m4186 -2193 c1143 -1084 1993 -2531 2384 -4058 l33 -127 -51 -108 c-63 -133
-84 -188 -178 -471 -41 -124 -97 -271 -124 -326 -52 -108 -129 -204 -179 -225
-27 -11 -36 -9 -89 20 -32 17 -137 92 -233 167 -281 219 -412 300 -589 366
-130 49 -250 70 -395 70 -202 0 -380 -47 -583 -154 -72 -38 -92 -45 -88 -32
21 75 31 274 31 608 0 410 -8 495 -66 701 -113 406 -377 666 -754 746 -63 13
-164 21 -340 28 -137 5 -304 15 -370 20 -188 17 -529 70 -543 85 -3 3 15 47
41 98 32 62 257 386 692 997 355 498 779 1093 943 1322 163 230 300 417 304
415 3 -1 73 -65 154 -142z m-12503 -4786 c20 -5 37 -13 37 -17 0 -4 -48 -63
-106 -132 -250 -297 -371 -473 -498 -729 -134 -267 -236 -586 -282 -886 -26
-168 -26 -565 0 -710 71 -395 187 -648 461 -1001 58 -75 105 -139 105 -144 0
-5 -29 -51 -65 -102 -140 -201 -376 -558 -436 -658 -81 -136 -243 -454 -305
-599 l-49 -114 -54 114 c-363 772 -627 1717 -725 2599 -43 386 -51 534 -50
975 0 402 6 542 42 890 l7 70 170 68 c430 174 919 305 1365 366 153 21 327 26
383 10z"/>
</g>
</svg>
