<svg xmlns="http://www.w3.org/2000/svg" viewBox="0 0 512 512" width="100%" height="100%">
  <defs>
    <path id="pin" d="M 256,0 C 114.6,0 0,114.6 0,256 c 0,110.4 69.8,204.5 167.5,240.5 L 512,512 V 256 C 512,114.6 397.4,0 256,0 Z" fill="#FCD12A"/>
    
    <circle id="ring" cx="256" cy="256" r="210" fill="none" stroke="#FFFFFF" stroke-width="28"/>
    
    <path id="land" d="M 280,66 C 295,100 270,130 230,140 C 190,150 180,200 220,230 C 250,252 230,265 174,268 C 145,270 148,300 175,320 C 200,338 230,320 226,355 C 220,400 310,440 290,370 C 280,330 330,280 410,255 C 455,240 400,210 405,185 C 410,160 370,165 340,110 C 315,65 295,65 280,66 Z" fill="none" stroke="#FFFFFF" stroke-width="28" stroke-linecap="round" stroke-linejoin="round"/>
    
    <path id="left-land" d="M 120,225 C 100,230 74,245 68,260 M 68,295 C 100,290 100,320 122,345 C 130,355 125,385 110,410" fill="none" stroke="#FFFFFF" stroke-width="28" stroke-linecap="round" stroke-linejoin="round"/>
  </defs>
  
  <use href="#pin"/>
  <use href="#ring"/>
  <use href="#land"/>
  <use href="#left-land"/>
</svg>
